HIERARCHY
ROOT Hips
{
	OFFSET 0.00000 0.00000 0.00000
	CHANNELS 6 Xposition Yposition Zposition Zrotation Yrotation Xrotation 
	JOINT LHipJoint
	{
		OFFSET 0 0 0
		CHANNELS 3 Zrotation Yrotation Xrotation
		JOINT LeftHip
		{
			OFFSET 1.62964 -1.40469 0.78906
			CHANNELS 3 Zrotation Yrotation Xrotation
			JOINT LeftKnee
			{
				OFFSET 2.29640 -6.30932 0.00000
				CHANNELS 3 Zrotation Yrotation Xrotation
				JOINT LeftAnkle
				{
					OFFSET 2.29451 -6.30412 0.00000
					CHANNELS 3 Zrotation Yrotation Xrotation
					JOINT LeftToe
					{
						OFFSET 0.03611 -0.09921 1.56387
						CHANNELS 3 Zrotation Yrotation Xrotation
						End Site
						{
							OFFSET 0.00000 -0.00000 0.80291
						}
					}
				}
			}
		}
	}
	JOINT RHipJoint
	{
		OFFSET 0 0 0
		CHANNELS 3 Zrotation Yrotation Xrotation
		JOINT RightHip
		{
			OFFSET -1.73712 -1.40469 0.78906
			CHANNELS 3 Zrotation Yrotation Xrotation
			JOINT RightKnee
			{
				OFFSET -2.28137 -6.26801 0.00000
				CHANNELS 3 Zrotation Yrotation Xrotation
				JOINT RightAnkle
				{
					OFFSET -2.28681 -6.28298 0.00000
					CHANNELS 3 Zrotation Yrotation Xrotation
					JOINT RightToe
					{
						OFFSET -0.15927 -0.43759 1.61103
						CHANNELS 3 Zrotation Yrotation Xrotation
						End Site
						{
							OFFSET -0.00000 -0.00000 0.84630
						}
					}
				}
			}
		}
	}
	JOINT lowerback
	{
		OFFSET 0 0 0
		CHANNELS 3 Zrotation Yrotation Xrotation
		JOINT Chest
		{
			OFFSET -0.04227 2.04338 -0.00225
			CHANNELS 3 Zrotation Yrotation Xrotation
			JOINT Chest2
			{
				OFFSET -0.02148 2.04482 -0.04273
				CHANNELS 3 Zrotation Yrotation Xrotation
				JOINT lowerneck
				{
					OFFSET 0 0 0
					CHANNELS 3 Zrotation Yrotation Xrotation
					JOINT Neck
					{
						OFFSET 0.09180 1.44629 0.19359
						CHANNELS 3 Zrotation Yrotation Xrotation
						JOINT Head
						{
							OFFSET 0.00887 1.40645 0.14750
							CHANNELS 3 Zrotation Yrotation Xrotation
							End Site
							{
								OFFSET -0.00669 1.50671 0.03707
							}
						}
					}
				}
				JOINT LeftCollar
				{
					OFFSET 0 0 0
					CHANNELS 3 Zrotation Yrotation Xrotation
					JOINT LeftShoulder
					{
						OFFSET 2.17674 1.86763 -0.06520
CHANNELS 3 Zrotation Xrotation Yrotation
						JOINT LeftElbow
						{
OFFSET 0 -4.657760 0.000000
CHANNELS 3 Zrotation Xrotation Yrotation
							JOINT LeftWrist
							{
OFFSET 0 -3.555390 0.000000
CHANNELS 3 Zrotation Xrotation Yrotation
								JOINT lhand
								{
									OFFSET 0 0 0
CHANNELS 3 Zrotation Xrotation Yrotation
									JOINT LFingers
									{
OFFSET 0 -0.707260 0.000000
CHANNELS 3 Zrotation Xrotation Yrotation
										End Site
										{
OFFSET 0 -0.570220 0.000000
										}
									}
								}
								JOINT LThumb
								{
OFFSET 0 0.000000 0.000000
CHANNELS 3 Zrotation Xrotation Yrotation
									End Site
									{
OFFSET 0 -0.578920 0.578920
									}
								}
							}
						}
					}
				}
				JOINT RightCollar
				{
					OFFSET 0 0 0
					CHANNELS 3 Zrotation Yrotation Xrotation
					JOINT RightShoulder
					{
						OFFSET -2.80694 1.55459 -0.32496
CHANNELS 3 Zrotation Xrotation Yrotation
						JOINT RightElbow
						{
OFFSET 0 -4.719250 -0.000000
CHANNELS 3 Zrotation Xrotation Yrotation
							JOINT RightWrist
							{
OFFSET 0 -3.569900 0.000000
CHANNELS 3 Zrotation Xrotation Yrotation
								JOINT rhand
								{
									OFFSET 0 0 0
CHANNELS 3 Zrotation Xrotation Yrotation
									JOINT RFingers
									{
OFFSET 0 -0.507760 0.000000
CHANNELS 3 Zrotation Xrotation Yrotation
										End Site
										{
OFFSET 0 -0.409370 0.000000
										}
									}
								}
								JOINT RThumb
								{
OFFSET 0 0.000000 0.000000
CHANNELS 3 Zrotation Xrotation Yrotation
									End Site
									{
OFFSET 0 -0.415620 0.415620
									}
								}
							}
						}
					}
				}
			}
		}
	}
}
MOTION
Frames: 12
Frame Time: 0.008333333333333333
16.586600 19.650900 20.444300 178.382000 -3.191700 -152.778000 0.000000 0.000000 0.000000 -20.135000 -15.413300 -19.744500 0.162900 2.600100 7.167300 0.113500 -3.808600 -6.160000 1.257000 -7.107400 -20.034000 0.000000 0.000000 0.000000 19.632100 10.903700 -20.346100 -0.059600 -1.574900 4.332200 -1.021600 3.647000 -18.231200 -0.630500 5.080900 -14.139400 -6.892400 -1.359300 -31.150300 -0.044900 -0.093900 -1.502700 3.567600 -0.799100 14.585100 -0.512400 -3.520400 -4.812900 2.872600 -5.007700 7.172100 0.803900 -2.432600 3.245600 -0.000000 -0.000000 0.000000 5.311000 -4.394700 -28.454700 12.316500 -20.277600 2.210800 22.182400 -2.115700 10.360800 0.000000 0.000000 0.000000 -7.125000 0.000000 0.000000 -3.434800 18.822200 -2.146800 -0.000000 -0.000000 0.000000 0.306600 2.080000 6.034300 -14.456500 -23.383600 -3.006900 -13.156800 11.781500 51.639300 0.000000 0.000000 0.000000 7.125000 0.000000 -0.000000 61.117800 75.713800 -47.564800
16.586457 19.651472 20.442442 178.366280 -3.162690 -152.786574 0.000000 0.000000 0.000000 -20.158794 -15.391936 -19.738427 0.163114 2.601743 7.171873 0.114500 -3.762299 -6.175076 1.297228 -7.215650 -20.356036 0.000000 0.000000 0.000000 19.607735 10.914847 -20.323021 -0.059457 -1.573757 4.328985 -1.010025 3.582693 -18.132739 -0.581341 4.880619 -13.568638 -6.949133 -1.362587 -31.136724 -0.039755 -0.081181 -1.509345 3.608971 -0.796956 14.569095 -0.621579 -3.457236 -5.507489 3.187848 -5.016346 8.270109 0.907720 -2.421453 3.780707 0.000000 0.000000 0.000000 5.292351 -4.366119 -28.458273 12.312141 -20.271098 2.209228 22.182114 -2.141994 10.419034 0.000000 0.000000 0.000000 -7.125000 0.000000 0.000000 -3.436801 18.759822 -2.152802 0.000000 0.000000 0.000000 0.295168 2.073855 5.959775 -14.459572 -23.387887 -3.008115 -13.174020 11.747274 51.434303 0.000000 0.000000 0.000000 7.125000 0.000000 0.000000 60.355474 75.640418 -46.815979
16.586014 19.651915 20.441185 178.337689 -3.128789 -152.797294 0.000000 0.000000 0.000000 -20.202538 -15.368855 -19.721584 0.162685 2.598324 7.162373 0.115586 -3.744444 -6.197704 1.331492 -7.306739 -20.627487 0.000000 0.000000 0.000000 19.569897 10.906901 -20.313285 -0.060086 -1.581924 4.351469 -1.007717 3.540010 -18.117341 -0.580707 4.878773 -13.563190 -7.007840 -1.370507 -31.116412 -0.047911 -0.072711 -1.516505 3.635196 -0.796400 14.549743 -0.483069 -3.567708 -5.843651 3.080784 -5.214588 8.967945 0.825548 -2.517011 4.088118 0.000000 0.000000 0.000000 5.300989 -4.354786 -28.417396 12.293281 -20.243015 2.202679 22.158703 -2.151513 10.562219 0.000000 0.000000 0.000000 -7.125000 0.000000 0.000000 -3.457851 18.608331 -2.177725 0.000000 0.000000 0.000000 0.305145 2.104694 6.069226 -14.562013 -23.532216 -3.049059 -13.265208 11.797442 52.155364 0.000000 0.000000 0.000000 7.125000 0.000000 0.000000 63.087962 75.916325 -49.570638
16.585471 19.652171 20.440500 178.308718 -3.097377 -152.809154 0.000000 0.000000 0.000000 -20.247181 -15.346198 -19.701682 0.162029 2.593144 7.147960 0.116414 -3.754532 -6.219556 1.347143 -7.347787 -20.750064 0.000000 0.000000 0.000000 19.532098 10.897995 -20.312499 -0.061330 -1.597793 4.395232 -1.013327 3.501306 -18.175129 -0.618031 5.029705 -13.993511 -7.056848 -1.376170 -31.087368 -0.066898 -0.063520 -1.522845 3.644769 -0.794388 14.527418 -0.241116 -3.711115 -5.968720 2.792006 -5.418740 9.234352 0.671079 -2.620653 4.193734 0.000000 0.000000 0.000000 5.329851 -4.349042 -28.338085 12.282388 -20.226803 2.198921 22.109739 -2.111880 10.711362 0.000000 0.000000 0.000000 -7.125000 0.000000 0.000000 -3.497162 18.452577 -2.214563 0.000000 0.000000 0.000000 0.338814 2.144923 6.226259 -14.689751 -23.712208 -3.100100 -13.363459 11.860046 53.005899 0.000000 0.000000 0.000000 7.125000 0.000000 0.000000 66.291725 76.245574 -52.796452
16.585328 19.652028 20.440500 178.312290 -3.088803 -152.819871 0.000000 0.000000 0.000000 -20.242608 -15.329764 -19.698110 0.162172 2.594359 7.151247 0.115985 -3.800476 -6.218341 1.304557 -7.235250 -20.414452 0.000000 0.000000 0.000000 19.530097 10.935793 -20.311999 -0.062974 -1.619658 4.455609 -1.025903 3.421207 -18.304172 -0.677909 5.263140 -14.660948 -7.062064 -1.360593 -31.041424 -0.093764 -0.040226 -1.524559 3.628192 -0.782384 14.502123 -0.243188 -3.526053 -6.202727 2.898042 -5.144720 8.843936 0.721238 -2.474104 4.099345 0.000000 0.000000 0.000000 5.366935 -4.319890 -28.223547 12.341550 -20.314903 2.219427 22.020352 -1.921174 10.659416 0.000000 0.000000 0.000000 -7.125000 0.000000 0.000000 -3.558682 18.515670 -2.248717 0.000000 0.000000 0.000000 0.410052 2.124630 6.085712 -14.655168 -23.663478 -3.086167 -13.294079 11.748794 51.920966 0.000000 0.000000 0.000000 7.125000 0.000000 0.000000 62.122333 75.862732 -48.625703
16.585128 19.651771 20.439813 178.337050 -3.086298 -152.834598 0.000000 0.000000 0.000000 -20.216390 -15.299301 -19.692017 0.162085 2.593684 7.149438 0.114182 -3.828267 -6.181109 1.254642 -7.100323 -20.013275 0.000000 0.000000 0.000000 19.545676 11.020088 -20.290828 -0.064273 -1.635968 4.500697 -1.034355 3.370256 -18.389982 -0.693007 5.321697 -14.828373 -7.049930 -1.372560 -30.998802 -0.071614 -0.070072 -1.549294 3.634005 -0.794258 14.458047 0.103695 -3.793419 -6.413084 2.439473 -5.533108 9.437340 0.473521 -2.672846 4.332381 0.000000 0.000000 0.000000 5.372410 -4.241148 -28.279135 12.365497 -20.350495 2.227737 21.947457 -1.933576 10.452634 0.000000 0.000000 0.000000 -7.125000 0.000000 0.000000 -3.604055 18.742933 -2.259222 0.000000 0.000000 0.000000 0.387266 2.138409 6.087175 -14.649903 -23.656090 -3.084087 -13.335730 11.816372 51.667936 0.000000 0.000000 0.000000 7.125000 0.000000 0.000000 61.123430 75.793915 -47.653558
16.584569 19.652117 20.438352 178.370793 -3.082168 -152.877022 0.000000 0.000000 0.000000 -20.184980 -15.288907 -19.630858 0.161052 2.585534 7.126868 0.114106 -3.789940 -6.171906 1.223040 -7.014434 -19.758116 0.000000 0.000000 0.000000 19.572101 11.087651 -20.232201 -0.065057 -1.645618 4.527295 -1.040351 3.373619 -18.444606 -0.693361 5.323047 -14.832232 -7.027265 -1.377827 -30.945947 -0.051617 -0.091608 -1.559173 3.635660 -0.801196 14.426172 0.257374 -3.900345 -6.501833 2.260420 -5.692921 9.702899 0.373115 -2.753971 4.436482 0.000000 0.000000 0.000000 5.393340 -4.177425 -28.399451 12.377184 -20.367848 2.231819 21.874341 -1.995421 10.235247 0.000000 0.000000 0.000000 -7.125000 0.000000 0.000000 -3.649561 18.981418 -2.268547 0.000000 0.000000 0.000000 0.369693 2.155146 6.125151 -14.671114 -23.685912 -3.092640 -13.517658 11.948654 51.614631 0.000000 0.000000 0.000000 7.125000 0.000000 0.000000 60.821947 75.844181 -47.438894
16.583504 19.653397 20.436002 178.410053 -3.073286 -152.958801 0.000000 0.000000 0.000000 -20.153795 -15.313360 -19.489301 0.158702 2.567013 7.075437 0.117103 -3.660247 -6.217684 1.221506 -7.010089 -19.745359 0.000000 0.000000 0.000000 19.608132 11.113322 -20.125918 -0.065202 -1.647427 4.532076 -1.044196 3.446917 -18.468663 -0.688289 5.303758 -14.777081 -6.995434 -1.363064 -30.877011 -0.052832 -0.081282 -1.538536 3.622956 -0.792048 14.419460 -0.004731 -3.602359 -6.418349 2.704606 -5.269275 9.119086 0.601323 -2.533244 4.228407 0.000000 0.000000 0.000000 5.448717 -4.154399 -28.552615 12.383488 -20.377233 2.234061 21.794969 -2.055701 10.059792 0.000000 0.000000 0.000000 -7.125000 0.000000 0.000000 -3.701127 19.175397 -2.284834 0.000000 0.000000 0.000000 0.394451 2.163732 6.165383 -14.720978 -23.755949 -3.112672 -13.866677 12.110695 51.551706 0.000000 0.000000 0.000000 7.125000 0.000000 0.000000 60.389330 75.955554 -47.171773
16.585076 19.652039 20.436716 178.432918 -3.024341 -152.873773 0.000000 0.000000 0.000000 -20.108851 -15.253626 -19.618058 0.159416 2.572658 7.091156 0.118461 -3.680468 -6.253696 1.266878 -7.133845 -20.112838 0.000000 0.000000 0.000000 19.621994 11.208139 -20.219307 -0.066131 -1.659146 4.564587 -1.042624 3.454348 -18.452944 -0.683573 5.285967 -14.726135 -7.010082 -1.390645 -30.967327 -0.023751 -0.116365 -1.553970 3.646749 -0.812555 14.445111 -0.060750 -3.627582 -6.353756 2.707250 -5.301500 9.156027 0.611040 -2.552251 4.231265 0.000000 0.000000 0.000000 5.413348 -4.154042 -28.387846 12.335472 -20.305852 2.217341 21.781679 -2.013401 10.141891 0.000000 0.000000 0.000000 -7.125000 0.000000 0.000000 -3.712702 19.088582 -2.299195 0.000000 0.000000 0.000000 0.373444 2.177379 6.329295 -14.797003 -23.862556 -3.143396 -13.899473 12.023166 51.468750 0.000000 0.000000 0.000000 7.125000 0.000000 0.000000 60.059791 75.935833 -46.860598
16.585657 19.652275 20.437043 178.426494 -2.988834 -152.808988 0.000000 0.000000 0.000000 -20.100605 -15.239160 -19.701461 0.160002 2.577269 7.103990 0.119775 -3.702283 -6.288330 1.304067 -7.233997 -20.410714 0.000000 0.000000 0.000000 19.592741 11.297572 -20.288359 -0.067189 -1.672328 4.600974 -1.041182 3.363317 -18.454281 -0.678685 5.267529 -14.673295 -7.034033 -1.406682 -31.036710 -0.028309 -0.127156 -1.558119 3.648964 -0.821303 14.471495 -0.058837 -3.654355 -6.316471 2.698307 -5.340832 9.196715 0.605769 -2.572980 4.238688 0.000000 0.000000 0.000000 5.404856 -4.179700 -28.216056 12.274793 -20.215434 2.196357 21.774160 -1.935352 10.272402 0.000000 0.000000 0.000000 -7.125000 0.000000 0.000000 -3.721607 18.949694 -2.316228 0.000000 0.000000 0.000000 0.398050 2.172850 6.420157 -14.872512 -23.968216 -3.174035 -13.816794 11.791648 51.393590 0.000000 0.000000 0.000000 7.125000 0.000000 0.000000 59.828241 75.873988 -46.592710
16.585251 19.653024 20.436693 178.398738 -2.953715 -152.753040 0.000000 0.000000 0.000000 -20.123699 -15.252606 -19.753526 0.160182 2.578599 7.107718 0.120858 -3.712497 -6.315185 1.334629 -7.315082 -20.652371 0.000000 0.000000 0.000000 19.528006 11.386958 -20.347855 -0.068492 -1.688320 4.645028 -1.041465 3.236994 -18.477125 -0.674598 5.252108 -14.629082 -7.064129 -1.415477 -31.102510 -0.050646 -0.122956 -1.556430 3.641172 -0.823218 14.501106 -0.049398 -3.678228 -6.284586 2.708179 -5.378398 9.224637 0.605595 -2.591722 4.243049 0.000000 0.000000 0.000000 5.406841 -4.215703 -28.048529 12.205392 -20.111890 2.172447 21.773451 -1.827908 10.414857 0.000000 0.000000 0.000000 -7.125000 0.000000 0.000000 -3.726080 18.797568 -2.331607 0.000000 0.000000 0.000000 0.438550 2.151566 6.430831 -14.953373 -24.081094 -3.206969 -13.554746 11.404963 51.460588 0.000000 0.000000 0.000000 7.125000 0.000000 0.000000 60.227541 75.796064 -46.867791
16.583537 19.651666 20.434693 178.363012 -2.885406 -152.679444 0.000000 0.000000 0.000000 -20.174859 -15.258536 -19.799899 0.159110 2.569739 7.083210 0.121144 -3.673127 -6.315114 1.360352 -7.382390 -20.853438 0.000000 0.000000 0.000000 19.435546 11.490064 -20.432740 -0.070421 -1.711542 4.709121 -1.048182 3.226633 -18.540217 -0.674098 5.250179 -14.623580 -7.094282 -1.425695 -31.208331 -0.055790 -0.122742 -1.561003 3.649889 -0.828720 14.541477 -0.160078 -3.686731 -6.203345 2.821717 -5.390688 9.192840 0.664115 -2.598224 4.223614 0.000000 0.000000 0.000000 5.380475 -4.225063 -27.915841 12.134511 -20.006069 2.148082 21.784526 -1.697579 10.479093 0.000000 0.000000 0.000000 -7.125000 0.000000 0.000000 -3.720078 18.728045 -2.333607 0.000000 0.000000 0.000000 0.423545 2.111553 6.315864 -15.056550 -24.224713 -3.249126 -12.887880 10.781970 52.064646 0.000000 0.000000 0.000000 7.125000 0.000000 0.000000 62.846415 75.763911 -49.159270
